<svg width="30" height="30" viewBox="0 0 30 30" fill="none" xmlns="http://www.w3.org/2000/svg">
<g clip-path="url(#clip0)">
<path d="M29.6207 11.5068C29.4271 10.8993 28.8991 10.4692 28.2768 10.4118L19.7894 9.62558L16.4351 1.61275C16.1875 1.02405 15.624 0.644104 14.9968 0.644104C14.3696 0.644104 13.8059 1.02405 13.5598 1.61275L10.2055 9.62558L1.71677 10.4118C1.0945 10.4704 0.567569 10.9005 0.372858 11.5068C0.179269 12.1143 0.358053 12.7805 0.828679 13.2017L7.24448 18.9419L5.35278 27.4432C5.21438 28.0683 5.45216 28.7146 5.96047 29.0896C6.23369 29.2921 6.5547 29.3933 6.87682 29.3933C7.15363 29.3933 7.43067 29.3182 7.67809 29.1671L14.9968 24.702L22.3141 29.1671C22.8509 29.4945 23.5259 29.4645 24.0331 29.0896C24.5414 28.7146 24.7792 28.0683 24.6408 27.4432L22.7491 18.9419L29.1649 13.2017C29.6353 12.7805 29.8143 12.1156 29.6207 11.5068Z" fill="#1A73E8"/>
</g>
<defs>
<clipPath id="clip0">
<rect width="29.4017" height="30" fill="white" transform="translate(0.296387)"/>
</clipPath>
</defs>
</svg>
